<svg width="23" height="17" viewBox="0 0 23 17" fill="none" xmlns="http://www.w3.org/2000/svg">
<path d="M4.2099 0.382721H22.2099V12.3827H4.2099V0.382721ZM13.2099 3.38272C14.0055 3.38272 14.7686 3.69879 15.3312 4.2614C15.8938 4.82401 16.2099 5.58707 16.2099 6.38272C16.2099 7.17837 15.8938 7.94143 15.3312 8.50404C14.7686 9.06665 14.0055 9.38272 13.2099 9.38272C12.4143 9.38272 11.6512 9.06665 11.0886 8.50404C10.526 7.94143 10.2099 7.17837 10.2099 6.38272C10.2099 5.58707 10.526 4.82401 11.0886 4.2614C11.6512 3.69879 12.4143 3.38272 13.2099 3.38272ZM8.2099 2.38272C8.2099 2.91315 7.99919 3.42186 7.62411 3.79693C7.24904 4.17201 6.74033 4.38272 6.2099 4.38272V8.38272C6.74033 8.38272 7.24904 8.59344 7.62411 8.96851C7.99919 9.34358 8.2099 9.85229 8.2099 10.3827H18.2099C18.2099 9.85229 18.4206 9.34358 18.7957 8.96851C19.1708 8.59344 19.6795 8.38272 20.2099 8.38272V4.38272C19.6795 4.38272 19.1708 4.17201 18.7957 3.79693C18.4206 3.42186 18.2099 2.91315 18.2099 2.38272H8.2099ZM0.2099 4.38272H2.2099V14.3827H18.2099V16.3827H0.2099V4.38272Z" fill="#56657F"/>
</svg>
