<svg width="512" height="352" viewBox="0 0 512 352" fill="none" xmlns="http://www.w3.org/2000/svg">
<path d="M291.677 311.406C288.137 307.179 283.344 304.086 277.319 302.928C272.065 301.919 266.662 302.091 261.322 302.126L193.791 302.57C188.007 302.608 182.462 306.881 182.731 312.001C182.997 317.078 187.591 321.473 193.791 321.432C213.573 321.302 233.355 321.172 253.136 321.042C257.8 321.011 262.466 320.939 267.13 320.953C268.178 320.955 269.221 321.003 270.267 321.013C270.52 321.015 270.703 321.013 270.833 321.009C270.865 321.017 270.892 321.025 270.935 321.034C271.48 321.162 272.04 321.25 272.589 321.372C272.397 321.377 272.945 321.668 273.221 321.767C273.259 321.831 273.339 321.944 273.474 322.118C273.662 322.419 274.219 323.332 274.242 323.303C275.078 325.106 275.768 326.956 276.306 328.839C277.592 332.993 277.874 333.862 278.059 337.759C278.293 342.682 282.979 347.424 289.119 347.19C294.911 346.969 300.43 343.039 300.179 337.759C299.757 328.862 297.925 318.867 291.677 311.406Z" fill="#E6E6E6"/>
<path d="M197.761 332.688C196.492 326.134 195.248 319.575 193.955 313.025C192.643 306.379 189.963 300.294 183.898 295.932C182.278 294.767 180.598 293.679 178.91 292.595C178.317 292.213 177.725 291.832 177.138 291.442C177.103 291.419 177.081 291.404 177.051 291.384C176.986 291.336 176.909 291.28 176.805 291.205C174.277 289.381 171.835 287.476 169.508 285.45C167.442 283.652 165.466 281.776 163.581 279.824C163.11 279.337 162.645 278.845 162.186 278.349C162.107 278.263 161.681 277.794 161.401 277.489C161.14 277.183 160.664 276.63 160.584 276.533C160.048 275.887 159.521 275.234 159.004 274.575C155.481 270.075 152.431 265.318 149.888 260.361C149.636 259.869 149.39 259.374 149.15 258.877C149.085 258.725 149.002 258.53 148.891 258.27C148.379 257.069 147.867 255.869 147.399 254.653C146.404 252.071 145.548 249.451 144.832 246.792C144.478 245.48 144.159 244.16 143.876 242.834C143.729 242.152 143.593 241.469 143.465 240.784C143.445 240.671 143.32 239.932 143.247 239.515C143.193 239.095 143.092 238.352 143.079 238.238C142.998 237.547 142.926 236.857 142.863 236.165C142.722 234.609 142.626 233.05 142.576 231.489C142.491 228.714 142.55 225.939 142.751 223.165C142.866 221.606 143.029 220.051 143.231 218.499C143.243 218.404 143.252 218.328 143.261 218.26C143.273 218.19 143.287 218.112 143.304 218.014C143.453 217.156 143.61 216.299 143.785 215.446C144.448 212.204 145.311 208.994 146.37 205.83C146.871 204.333 147.415 202.849 148.003 201.376C148.265 200.723 148.535 200.072 148.814 199.423C148.795 199.465 149.631 197.646 149.642 197.584C152.956 190.907 158.378 184.819 158.385 177.233C158.39 172.097 153.295 167.177 147.325 167.415C144.349 167.51 141.532 168.587 139.469 170.419C137.406 172.25 136.257 174.693 136.265 177.233C136.265 177.348 136.264 177.447 136.264 177.542C136.208 177.702 136.162 177.836 136.12 177.954C135.473 179.151 134.682 180.29 133.972 181.458C132.029 184.654 130.371 187.956 128.796 191.306C126.217 196.762 124.243 202.411 122.9 208.181C119.98 220.822 119.754 233.808 122.231 246.518C126.519 268.807 140.661 290.142 160.321 304.484C162.028 305.728 163.775 306.931 165.54 308.109C166.27 308.597 167.006 309.075 167.746 309.551C168.095 309.776 169.544 310.75 168.907 310.278C170.277 311.275 170.854 311.777 171.206 312.511C171.257 312.681 171.327 312.911 171.421 313.225C171.669 314.053 171.904 314.88 172.1 315.72C173.811 323.059 175.001 330.522 176.43 337.909C177.413 342.984 184.741 346.287 190.036 344.766C196.199 342.996 198.813 338.127 197.761 332.688Z" fill="#E6E6E6"/>
<path d="M292.796 351.724C288.151 351.735 283.691 350.174 280.394 347.383C277.097 344.593 275.233 340.802 275.21 336.841V326.083C262.001 327.344 216.769 327.052 203.803 325.275V336.411C203.768 340.368 201.9 344.154 198.606 346.942C195.312 349.73 190.858 351.294 186.217 351.294C181.576 351.294 177.123 349.73 173.828 346.942C170.534 344.154 168.666 340.368 168.631 336.411V314.547C151.07 306.229 136.431 294.065 126.223 279.311C116.016 264.557 110.611 247.748 110.565 230.618C110.565 201.246 126.176 173.846 153.395 155.444C171.093 143.439 192.595 136.219 215.14 134.711C218.2 134.507 221.279 134.403 224.292 134.403C234.904 134.403 282.785 135.801 294.799 138.748L322.192 115.57C322.595 115.225 323.109 114.99 323.669 114.895C324.229 114.799 324.81 114.849 325.337 115.036C325.868 115.216 326.323 115.529 326.642 115.934C326.961 116.338 327.129 116.816 327.124 117.303V120.989L332.458 116.484C332.86 116.138 333.373 115.903 333.933 115.807C334.493 115.712 335.074 115.761 335.601 115.949C336.132 116.129 336.588 116.442 336.907 116.847C337.226 117.251 337.394 117.729 337.389 118.217V159.398C351.135 169.965 361.611 183.259 367.89 198.104C374.169 212.949 376.057 228.885 373.386 244.5C370.714 260.116 363.567 274.928 352.577 287.625C341.587 300.322 327.094 310.511 310.381 317.29V336.841C310.359 340.802 308.494 344.593 305.198 347.383C301.901 350.174 297.441 351.735 292.796 351.724ZM276.593 324.746V336.841C276.627 340.486 278.35 343.971 281.385 346.538C284.42 349.105 288.521 350.545 292.796 350.545C297.07 350.545 301.172 349.105 304.207 346.538C307.241 343.971 308.964 340.486 308.999 336.841V316.545L309.394 316.385C328.146 308.798 344.065 296.927 355.384 282.091C369.807 263.159 375.805 240.449 372.293 218.073C368.781 195.696 355.99 175.131 336.236 160.1L336.007 159.924V118.217C336.011 117.963 335.925 117.715 335.759 117.505C335.594 117.294 335.356 117.132 335.079 117.041C334.804 116.94 334.499 116.913 334.205 116.963C333.912 117.013 333.642 117.137 333.433 117.319L325.741 123.815V117.303C325.746 117.05 325.66 116.801 325.494 116.591C325.328 116.381 325.091 116.219 324.814 116.127C324.538 116.027 324.233 116 323.938 116.05C323.644 116.1 323.375 116.225 323.165 116.408L295.185 140.082L294.788 139.976C283.62 136.995 234.985 135.582 224.292 135.582C221.315 135.582 218.273 135.685 215.249 135.887C192.977 137.376 171.736 144.508 154.254 156.368C127.368 174.545 111.948 201.608 111.948 230.618C111.994 247.596 117.37 264.254 127.519 278.862C137.667 293.469 152.217 305.493 169.657 313.685L170.014 313.853V336.411C170.049 340.055 171.772 343.54 174.807 346.106C177.842 348.673 181.943 350.113 186.217 350.113C190.491 350.113 194.592 348.673 197.627 346.106C200.662 343.54 202.385 340.055 202.42 336.411V323.864L203.239 323.995C214.891 325.865 263.954 326.159 275.811 324.833L276.593 324.746Z" fill="#3F3D56"/>
<path d="M199.082 70.2129L122.531 89.8295C120.097 90.4559 118.053 91.8809 116.849 93.7914C115.646 95.7018 115.381 97.9415 116.113 100.018C116.845 102.095 118.514 103.839 120.753 104.868C122.992 105.896 125.618 106.125 128.055 105.503L195.045 88.3323L196.448 87.9727C196.732 81.8063 198.694 75.7807 202.179 70.372C201.741 70.2042 201.274 70.1006 200.796 70.0655C200.219 70.0178 199.636 70.0679 199.082 70.2129Z" fill="#6C63FF"/>
<path d="M126.731 109.685C125.714 109.683 124.725 109.409 123.901 108.901C123.078 108.393 122.463 107.677 122.142 106.855L117.355 94.538C117.155 94.0236 117.076 93.4807 117.122 92.9402C117.169 92.3998 117.339 91.8724 117.624 91.3882C117.91 90.9039 118.304 90.4723 118.785 90.1181C119.266 89.7638 119.824 89.4937 120.427 89.3234L182.731 71.7167C183.334 71.5462 183.971 71.4787 184.605 71.518C185.238 71.5573 185.857 71.7026 186.425 71.9458C186.992 72.1889 187.499 72.525 187.914 72.9349C188.33 73.3449 188.646 73.8206 188.846 74.3349L193.633 86.6519C194.031 87.6649 193.952 88.7704 193.411 89.7341C192.87 90.6979 191.91 91.4442 190.735 91.815C190.677 91.8334 190.619 91.8507 190.56 91.8671L128.258 109.473C127.765 109.613 127.25 109.685 126.731 109.685Z" fill="#2F2E41"/>
<path d="M243.412 48.3387C230.837 48.3429 218.758 52.5191 209.731 59.9836C200.703 67.4481 195.436 77.615 195.045 88.3323C195.031 88.7508 195.024 89.1752 195.024 89.5996C195.024 97.7603 197.862 105.738 203.179 112.523C208.496 119.308 216.053 124.597 224.895 127.72C233.737 130.843 243.466 131.66 252.852 130.068C262.239 128.476 270.861 124.546 277.628 118.776C284.395 113.005 289.004 105.653 290.871 97.6492C292.738 89.6454 291.78 81.3492 288.117 73.8098C284.455 66.2703 278.253 59.8262 270.295 55.2924C262.338 50.7586 252.982 48.3387 243.412 48.3387ZM243.412 129.682C230.949 129.671 219.001 125.444 210.188 117.93C201.376 110.415 196.419 100.227 196.406 89.5996C196.406 89.0515 196.42 88.5092 196.448 87.9728C196.822 80.1213 199.895 72.5368 205.284 66.1625C210.673 59.7882 218.14 54.9052 226.758 52.1207C235.375 49.3362 244.762 48.7731 253.752 50.5014C262.741 52.2297 270.937 56.1731 277.319 61.8413C283.702 67.5096 287.989 74.6525 289.649 82.382C291.309 90.1114 290.268 98.0864 286.655 105.315C283.042 112.544 277.016 118.708 269.328 123.04C261.64 127.372 252.628 129.682 243.412 129.682Z" fill="#3F3D56"/>
<path d="M284.196 89.5996C284.196 98.8231 279.9 107.669 272.251 114.191C264.602 120.713 254.229 124.377 243.412 124.377C232.595 124.377 222.222 120.713 214.573 114.191C206.925 107.669 202.628 98.8231 202.628 89.5996C202.628 88.4974 202.69 87.4128 202.807 86.34C203.79 77.4384 208.756 69.2016 216.673 63.3398C224.591 57.478 234.852 54.4415 245.326 54.861C255.799 55.2805 265.681 59.1236 272.92 65.5924C280.158 72.0612 284.196 80.6587 284.196 89.5996Z" fill="#E6E6E6"/>
<path d="M255.558 91.9103C254.569 90.8019 253.268 89.9241 251.776 89.358C249.936 88.6967 248.036 88.1644 246.094 87.7665V78.3C249.079 78.6838 251.878 79.772 254.175 81.4418L256.429 77.3452C255.133 76.3605 253.645 75.5766 252.032 75.0286C250.245 74.4115 248.369 74.0012 246.454 73.8085V69.0104H241.235V73.8556C239.219 74.0487 237.275 74.6053 235.532 75.4884C233.957 76.2833 232.631 77.3916 231.667 78.7185C230.748 80.0135 230.272 81.5019 230.292 83.0156C230.202 84.6559 230.76 86.2746 231.875 87.6132C232.902 88.7722 234.258 89.6891 235.815 90.2775C237.685 90.9583 239.618 91.5045 241.594 91.9103V100.982C238.072 100.755 234.716 99.6135 231.979 97.7104L229.725 101.813C231.256 102.892 232.997 103.734 234.868 104.3C236.919 104.926 239.062 105.307 241.235 105.432V110.189H246.454V105.344C249.353 105.074 252.071 104.011 254.203 102.314C255.141 101.546 255.883 100.621 256.38 99.5959C256.878 98.5711 257.12 97.4694 257.092 96.3605C257.179 94.7725 256.639 93.2055 255.558 91.9103ZM241.594 86.7644C240.323 86.4357 239.141 85.8947 238.117 85.1729C237.711 84.8652 237.391 84.4846 237.178 84.0586C236.965 83.6326 236.866 83.1717 236.887 82.7091C236.849 81.6592 237.301 80.6395 238.145 79.8739C239.08 79.0706 240.286 78.5368 241.594 78.3472V86.7644ZM249.371 99.3078C248.489 100.079 247.341 100.589 246.094 100.764V92.9595C247.286 93.232 248.4 93.7072 249.371 94.3564C249.739 94.6244 250.031 94.9596 250.226 95.3372C250.421 95.7148 250.514 96.125 250.498 96.5374C250.546 97.549 250.143 98.5387 249.371 99.3078Z" fill="#6C63FF"/>
<path d="M128.952 159.604C127.884 159.603 126.846 159.301 125.999 158.745C125.152 158.189 124.544 157.41 124.269 156.53L121.663 148.118C121.337 147.061 121.516 145.937 122.16 144.992C122.805 144.047 123.863 143.359 125.102 143.078L207.321 124.552C208.562 124.276 209.88 124.43 210.988 124.981C212.096 125.532 212.903 126.434 213.232 127.491L215.44 134.617L215.026 134.644C193.94 136.042 173.764 142.561 156.886 153.43L156.766 153.48L130.18 159.468C129.779 159.559 129.367 159.604 128.952 159.604Z" fill="#2F2E41"/>
<path d="M115.335 201.152C105.691 199.937 96.4666 196.963 88.2918 192.433C84.2419 190.19 80.4927 187.575 77.1114 184.635C73.7741 181.733 70.5814 178.434 68.9284 174.568C67.338 170.992 67.42 167.031 69.1574 163.505C70.8711 160 74.1447 157.218 78.2604 155.768C82.4008 154.36 87.4032 154.209 91.4327 155.751C93.3529 156.469 95.0144 157.609 96.2469 159.056C96.8198 159.722 97.2439 160.473 97.4983 161.271C97.7343 161.994 97.7557 162.755 97.5607 163.487C97.3244 164.217 96.9077 164.896 96.3386 165.478C95.7694 166.059 95.061 166.531 94.2607 166.86C92.4995 167.63 90.5912 168.127 88.6255 168.326C86.6484 168.555 83.8083 168.765 82.2189 167.411C81.8917 167.144 81.6344 166.82 81.4636 166.462C81.3441 166.188 81.3033 165.893 81.3444 165.602C81.3213 165.73 81.4403 165.324 81.4335 165.34C81.4084 165.4 81.2996 165.547 81.4543 165.322C81.5026 165.248 81.5565 165.176 81.6154 165.108C81.5629 165.166 81.4475 165.262 81.6536 165.096C81.8238 164.938 82.0427 164.822 82.2856 164.764C82.3812 164.74 82.4783 164.721 82.5742 164.699C82.8181 164.642 82.3312 164.702 82.5807 164.695C82.6769 164.692 82.7744 164.694 82.8703 164.691C83.115 164.681 82.6289 164.634 82.8634 164.684C82.9545 164.704 83.0447 164.723 83.1344 164.747C83.3294 164.799 82.9963 164.625 83.1284 164.755C83.2833 164.908 82.9658 164.607 83.1418 164.755C83.2294 164.828 83.312 164.906 83.3891 164.987C83.6943 165.244 84.1059 165.388 84.5349 165.388C84.9638 165.388 85.3754 165.244 85.6806 164.987C85.9755 164.724 86.14 164.374 86.14 164.01C86.14 163.646 85.9755 163.296 85.6806 163.033C84.0828 161.344 80.9268 161.761 79.3105 163.189C77.2491 165.009 78.0654 167.894 80.0705 169.483C82.3404 171.281 85.5553 171.406 88.4751 171.105C90.9427 170.903 93.3474 170.324 95.5738 169.394C97.7859 168.467 99.5161 166.873 100.429 164.921C100.841 163.879 100.99 162.775 100.864 161.681C100.738 160.586 100.341 159.527 99.6989 158.574C97.121 154.441 91.783 152.322 86.5067 151.955C83.7902 151.774 81.0584 152.053 78.4696 152.778C75.8807 153.503 73.486 154.658 71.4242 156.177C67.4501 159.228 65.003 163.464 64.5888 168.01C64.1283 172.723 66.2728 177.301 69.3995 181.104C72.6728 184.969 76.5788 188.414 80.9985 191.333C89.6388 197.215 99.7739 201.291 110.593 203.234C111.88 203.461 113.173 203.655 114.474 203.816C114.888 203.902 115.324 203.85 115.695 203.67C116.065 203.491 116.341 203.198 116.467 202.851C116.578 202.498 116.522 202.122 116.31 201.804C116.098 201.486 115.748 201.251 115.335 201.152L115.335 201.152Z" fill="#3F3D56"/>
<path d="M269.753 141.102C255.622 140.932 241.536 141.237 227.494 142.019C222.694 142.286 218.542 143.733 218.542 146.164C218.542 148.197 222.661 150.578 227.494 150.309C241.529 149.527 255.615 149.222 269.753 149.392C281.279 149.53 281.272 141.24 269.753 141.102Z" fill="#CCCCCC"/>
<path d="M248.867 148.981C247.34 148.981 211.466 148.932 211.466 144.707C211.466 140.482 247.34 140.433 248.867 140.433C250.395 140.433 286.269 140.482 286.269 144.707C286.269 148.932 250.395 148.981 248.867 148.981ZM212.869 144.707C213.851 145.988 227.037 147.802 248.867 147.802C270.698 147.802 283.884 145.988 284.866 144.707C283.884 143.426 270.698 141.612 248.867 141.612C227.037 141.612 213.851 143.426 212.869 144.707V144.707Z" fill="#3F3D56"/>
<path d="M362.686 260.061C370.628 259.873 380.511 259.638 388.125 254.896C390.393 253.425 392.255 251.55 393.583 249.401C394.911 247.253 395.672 244.882 395.812 242.456C395.968 238.711 394.381 235.441 391.344 233.253C387.367 230.387 381.559 229.715 375.301 231.283L381.785 190.878L377.025 190.322L369.403 237.824L373.378 236.268C377.986 234.466 384.311 233.549 388.242 236.381C389.208 237.122 389.96 238.042 390.44 239.071C390.92 240.1 391.116 241.209 391.011 242.312C390.895 244.118 390.324 245.881 389.337 247.481C388.349 249.082 386.97 250.482 385.291 251.587C379.366 255.278 371.488 255.754 362.552 255.967L362.686 260.061Z" fill="#3F3D56"/>
<path d="M349.526 194.363H323.65V198.46H349.526V194.363Z" fill="#3F3D56"/>
<path d="M140.661 178.446C139.51 178.443 138.397 178.09 137.522 177.451C136.648 176.812 136.069 175.928 135.889 174.958L134.31 166.363C134.112 165.282 134.426 164.179 135.182 163.295C135.938 162.411 137.074 161.818 138.341 161.648L222.351 150.424C223.619 150.255 224.913 150.523 225.949 151.167C226.986 151.812 227.681 152.781 227.88 153.861L229.46 162.456C229.657 163.537 229.343 164.641 228.588 165.525C227.832 166.409 226.696 167.001 225.428 167.172L141.419 178.396C141.168 178.429 140.915 178.446 140.661 178.446Z" fill="#2F2E41"/>
<path d="M105.894 77.7207C125.364 77.7207 141.148 64.2617 141.148 47.6592C141.148 31.0566 125.364 17.5976 105.894 17.5976C86.4235 17.5976 70.6396 31.0566 70.6396 47.6592C70.6396 64.2617 86.4235 77.7207 105.894 77.7207Z" fill="#6C63FF"/>
<path d="M125.854 55.4374C126.981 55.1013 128.01 54.5635 128.873 53.86C129.444 53.3584 129.879 52.7565 130.148 52.0963C130.417 51.4362 130.514 50.7339 130.431 50.0386C130.383 49.543 130.202 49.0636 129.901 48.6378C129.599 48.212 129.187 47.8514 128.695 47.5841C127.419 46.9151 125.733 46.9403 124.031 47.6132L123.835 35.8786L122.452 35.8954L122.683 49.6906L123.735 49.1021C124.956 48.4207 126.709 47.9267 127.971 48.5883C128.283 48.7635 128.543 48.9976 128.732 49.2726C128.92 49.5476 129.032 49.8559 129.058 50.1736C129.116 50.6917 129.043 51.2143 128.843 51.7059C128.643 52.1976 128.321 52.6467 127.899 53.0228C126.401 54.2908 124.182 54.7156 121.651 55.1042L121.896 56.2643C123.241 56.09 124.566 55.8133 125.854 55.4374Z" fill="#2F2E41"/>
<path d="M138.07 35.055L130.708 36.0057L130.915 37.1712L138.277 36.2204L138.07 35.055Z" fill="#2F2E41"/>
<path d="M114.832 38.0552L107.47 39.0059L107.677 40.1714L115.039 39.2206L114.832 38.0552Z" fill="#2F2E41"/>
<path d="M129.191 177.921C127.924 177.918 126.687 177.587 125.645 176.97C124.603 176.354 123.807 175.482 123.361 174.469L99.0541 118.962C96.0832 112.155 96.4004 104.62 99.9362 98.0119C103.472 91.4035 109.938 86.2609 117.915 83.7124L137.679 77.4194C138.443 77.1744 139.257 77.0607 140.073 77.0849C140.889 77.109 141.691 77.2706 142.433 77.5601C143.174 77.8423 143.841 78.2476 144.396 78.7522C144.951 79.2568 145.383 79.8506 145.665 80.499L190.692 152.991C190.984 153.644 191.122 154.341 191.097 155.04C191.073 155.74 190.886 156.428 190.548 157.065C190.211 157.703 189.728 158.277 189.129 158.755C188.53 159.233 187.826 159.606 187.058 159.851L131.366 177.584C130.67 177.806 129.934 177.92 129.191 177.921Z" fill="#2F2E41"/>
<path d="M131.683 79.3285L176.358 130.271L146.128 79.8632C145.879 79.2751 145.495 78.7346 145.001 78.2727C144.506 77.8108 143.91 77.4366 143.245 77.1713C142.581 76.9061 141.862 76.755 141.129 76.7268C140.396 76.6985 139.664 76.7937 138.974 77.0068L131.683 79.3285Z" fill="#E6E6E6"/>
<path d="M202.421 118.017L122.652 113.635C121.395 113.566 120.166 113.287 119.035 112.813C117.905 112.338 116.895 111.679 116.063 110.872C115.231 110.065 114.594 109.126 114.187 108.109C113.781 107.093 113.614 106.017 113.695 104.945C113.776 103.873 114.103 102.825 114.659 101.861C115.215 100.897 115.989 100.035 116.935 99.3262C117.881 98.6169 118.982 98.0735 120.175 97.727C121.367 97.3805 122.628 97.2377 123.886 97.3068L203.654 101.688C204.243 101.72 204.819 101.851 205.348 102.073C205.878 102.295 206.351 102.604 206.74 102.982C207.13 103.36 207.428 103.799 207.618 104.276C207.809 104.752 207.887 105.255 207.849 105.757L207.194 114.439C207.117 115.453 206.571 116.4 205.676 117.071C204.781 117.742 203.61 118.082 202.421 118.017Z" fill="#6C63FF"/>
<path d="M181.105 120.825C181 120.825 180.894 120.823 180.789 120.817H180.788L115.287 117.219C114.653 117.184 114.033 117.043 113.463 116.804C112.893 116.565 112.383 116.233 111.964 115.826C111.544 115.419 111.223 114.945 111.018 114.432C110.813 113.92 110.728 113.377 110.769 112.837L111.889 98.0073C111.93 97.4665 112.096 96.9379 112.376 96.4517C112.656 95.9655 113.046 95.5311 113.524 95.1734C114.001 94.8157 114.556 94.5417 115.158 94.3669C115.759 94.1922 116.395 94.1203 117.03 94.1552L182.531 97.7525C183.811 97.8241 185.005 98.3256 185.852 99.1472C186.699 99.9688 187.129 101.043 187.048 102.135L185.928 116.965C185.867 117.759 185.537 118.522 184.98 119.161C184.423 119.8 183.661 120.288 182.786 120.567C182.248 120.738 181.679 120.826 181.105 120.825Z" fill="#2F2E41"/>
<path d="M105.49 27.6687C110.127 24.2675 116.496 27.3101 121.815 26.7775C126.903 26.2679 130.921 22.3758 131.948 18.241C133.145 13.417 130.209 8.58405 125.881 5.57638C121.141 2.28224 114.854 1.33657 108.896 1.94601C102.068 2.6445 95.8237 5.35849 90.2205 8.64121C84.8121 11.7117 79.8384 15.3055 75.3988 19.3509C71.4232 23.0948 68.055 27.5575 66.9794 32.5955C66.0019 37.174 66.7483 42.2476 69.9224 46.1262C71.6056 48.1142 73.8612 49.6987 76.4715 50.727C79.1933 51.8666 82.0967 52.6814 84.7336 53.9699C88.7206 55.9182 92.5957 59.9579 91.3467 64.1619C91.079 65.0803 90.5506 65.9284 89.808 66.6317C88.9158 67.4762 87.3065 66.3602 88.2011 65.5134C89.7722 64.0263 89.7103 62.0429 88.873 60.2673C87.8774 58.2665 86.1144 56.6133 83.8728 55.5787C81.1126 54.233 78.0652 53.4024 75.2362 52.1767C72.5284 51.057 70.1779 49.396 68.3848 47.3351C64.9989 43.3228 63.986 38.101 64.754 33.2704C65.5849 28.043 68.7347 23.2928 72.6832 19.3122C76.9802 14.9801 82.2584 11.3131 87.6507 8.01886C93.4366 4.48407 99.8289 1.49565 106.902 0.41478C113.034 -0.522161 119.68 0.0546792 125.042 2.90395C130.047 5.56357 133.885 10.1386 134.266 15.2508C134.403 17.5768 133.811 19.892 132.55 21.958C131.29 24.024 129.406 25.7663 127.094 27.0055C124.721 28.2163 121.962 28.7613 119.206 28.5636C116.261 28.4028 113.312 27.6336 110.347 27.8471C109.006 27.9166 107.727 28.357 106.706 29.1018C105.692 29.8449 104.485 28.4058 105.49 27.6688V27.6687Z" fill="#2F2E41"/>
</svg>
