<svg width="511" height="352" viewBox="0 0 511 352" fill="none" xmlns="http://www.w3.org/2000/svg">
<path d="M108.369 332.413C96.1336 320.507 87.2376 299.106 89.0583 277.47C100.075 294.55 114.783 305.261 130.58 307.707C136.674 308.618 143.516 308.683 147.844 315.154C150.537 319.181 151.681 325.066 151.74 330.755C151.799 336.445 150.883 342.046 149.973 347.572L150.197 348.952C135.603 348.147 120.604 344.318 108.369 332.413Z" fill="#F0F0F0"/>
<path d="M89.3647 277.466C93.9415 294.171 101.927 308.299 112.187 317.841C114.372 319.954 116.766 321.54 119.281 322.54C121.752 323.396 124.331 323.248 126.751 322.112C129.021 321.12 131.267 319.713 133.659 319.563C134.885 319.513 136.103 319.85 137.235 320.553C138.367 321.256 139.387 322.308 140.227 323.64C142.379 326.879 143.624 331.079 144.745 335.25C145.99 339.88 147.234 344.719 149.77 348.149C150.077 348.565 149.627 349.252 149.32 348.837C144.909 342.87 144.423 333.297 140.956 326.374C139.338 323.144 137.058 320.622 134.271 320.516C131.833 320.422 129.517 321.87 127.224 322.904C124.874 324.064 122.37 324.347 119.93 323.729C117.389 322.924 114.958 321.478 112.742 319.455C107.704 315.019 103.164 309.428 99.2889 302.887C94.8387 295.457 91.2723 286.946 88.7441 277.721C88.5878 277.15 89.2094 276.898 89.3647 277.466H89.3647Z" fill="white"/>
<path d="M108.762 315.059C107.456 317.412 105.633 318.995 103.617 319.526C101.602 320.057 99.5254 319.501 97.7592 317.956C97.4026 317.642 97.7129 316.8 98.07 317.114C99.7129 318.557 101.647 319.075 103.523 318.575C105.399 318.075 107.094 316.59 108.302 314.388C108.564 313.91 109.024 314.584 108.762 315.059V315.059Z" fill="white"/>
<path d="M125.644 322.841C125.291 316.616 123.38 310.818 120.291 306.604C119.985 306.187 120.435 305.499 120.741 305.916C123.949 310.31 125.93 316.35 126.288 322.829C126.321 323.446 125.678 323.455 125.644 322.841Z" fill="white"/>
<path d="M95.6483 295.055C96.2807 294.302 96.7779 293.326 97.0952 292.215C97.4125 291.104 97.5401 289.893 97.4664 288.69C97.4274 288.073 98.0712 288.065 98.11 288.678C98.1873 290.007 98.0453 291.345 97.6965 292.573C97.3477 293.802 96.8028 294.884 96.1092 295.726C96.0483 295.814 95.9673 295.863 95.8828 295.865C95.7983 295.866 95.7165 295.82 95.6541 295.735C95.5934 295.645 95.5587 295.524 95.5576 295.397C95.5566 295.269 95.5892 295.147 95.6483 295.055Z" fill="white"/>
<path d="M130.793 237.877C130.825 238.261 130.856 238.645 130.893 239.033C131.337 244.192 132.061 249.289 133.058 254.274C133.131 254.661 133.209 255.052 133.289 255.435C135.777 267.405 139.731 278.581 144.951 288.395C147.031 292.298 149.306 295.958 151.758 299.346C155.144 304.023 159.064 308.692 161.156 314.593C161.379 315.205 161.576 315.837 161.746 316.485L151.308 348.438C151.26 348.493 151.216 348.552 151.168 348.607L150.79 349.911C150.656 349.75 150.518 349.578 150.384 349.416C150.305 349.323 150.229 349.223 150.151 349.13C150.1 349.065 150.048 349.001 149.999 348.947C149.982 348.926 149.965 348.904 149.953 348.886C149.904 348.832 149.862 348.775 149.818 348.725C149.049 347.767 148.283 346.8 147.52 345.824C147.515 345.82 147.515 345.82 147.513 345.809C141.713 338.345 136.28 330.092 131.858 320.87C131.725 320.592 131.587 320.312 131.459 320.02C129.482 315.846 127.736 311.438 126.239 306.84C125.425 304.319 124.697 301.737 124.058 299.106C122.415 292.301 121.499 285.153 121.343 277.924C121.035 263.512 123.816 249.113 130.293 238.668C130.459 238.401 130.622 238.141 130.793 237.877Z" fill="#F0F0F0"/>
<path d="M131.041 238.147C127.96 255.6 128.639 274.059 132.984 290.902C133.876 294.553 135.148 297.971 136.753 301.03C138.381 303.935 140.5 306.136 142.89 307.404C145.103 308.654 147.463 309.549 149.434 311.58C150.432 312.642 151.269 314.007 151.89 315.585C152.51 317.164 152.9 318.921 153.034 320.74C153.446 325.261 152.746 329.733 151.96 334.071C151.087 338.887 150.129 343.869 150.77 348.887C150.848 349.495 150.212 349.64 150.134 349.033C149.018 340.303 152.49 332.222 152.513 323.577C152.523 319.544 151.72 315.481 149.538 312.89C147.629 310.625 145.196 309.698 142.948 308.462C140.604 307.276 138.49 305.251 136.792 302.564C135.087 299.636 133.729 296.297 132.776 292.689C130.542 284.618 129.171 276.073 128.715 267.366C128.157 257.433 128.742 247.431 130.443 237.793C130.548 237.197 131.146 237.554 131.041 238.147Z" fill="white"/>
<path d="M131.371 285.602C129.379 286.306 127.285 285.931 125.462 284.543C123.638 283.155 122.205 280.844 121.417 278.023C121.259 277.452 121.847 277.058 122.005 277.63C122.735 280.259 124.07 282.411 125.77 283.699C127.47 284.986 129.422 285.324 131.274 284.652C131.676 284.506 131.771 285.457 131.371 285.602V285.602Z" fill="white"/>
<path d="M141.712 306.991C143.94 301.704 144.752 295.357 143.985 289.215C143.909 288.607 144.545 288.462 144.622 289.07C145.412 295.463 144.558 302.065 142.231 307.56C142.009 308.084 141.491 307.512 141.712 306.991Z" fill="white"/>
<path d="M128.966 257.84C129.775 257.807 130.565 257.475 131.266 256.873C131.968 256.271 132.558 255.419 132.984 254.392C133.202 253.865 133.719 254.437 133.503 254.961C133.029 256.092 132.376 257.032 131.602 257.7C130.828 258.367 129.957 258.742 129.063 258.79C128.98 258.805 128.895 258.772 128.827 258.697C128.759 258.623 128.712 258.512 128.697 258.388C128.684 258.262 128.705 258.134 128.756 258.031C128.806 257.929 128.882 257.86 128.966 257.84H128.966Z" fill="white"/>
<path d="M481.754 332.413C493.989 320.507 502.885 299.106 501.065 277.47C490.048 294.55 475.34 305.261 459.543 307.707C453.449 308.618 446.607 308.683 442.279 315.154C439.586 319.181 438.442 325.066 438.383 330.755C438.324 336.445 439.24 342.046 440.149 347.572L439.926 348.952C454.52 348.147 469.519 344.318 481.754 332.413Z" fill="#F0F0F0"/>
<path d="M500.758 277.466C496.181 294.171 488.196 308.299 477.935 317.841C475.751 319.954 473.357 321.54 470.842 322.54C468.371 323.396 465.792 323.248 463.372 322.112C461.101 321.12 458.856 319.713 456.463 319.563C455.238 319.513 454.02 319.85 452.888 320.553C451.756 321.256 450.736 322.308 449.896 323.64C447.744 326.879 446.499 331.079 445.378 335.25C444.133 339.88 442.889 344.719 440.353 348.149C440.046 348.565 440.496 349.252 440.803 348.837C445.214 342.87 445.7 333.297 449.167 326.374C450.785 323.144 453.065 320.622 455.852 320.516C458.289 320.422 460.606 321.87 462.899 322.904C465.249 324.064 467.753 324.347 470.193 323.729C472.734 322.924 475.165 321.478 477.381 319.455C482.419 315.019 486.959 309.428 490.834 302.887C495.284 295.457 498.851 286.946 501.379 277.721C501.535 277.15 500.913 276.898 500.758 277.466H500.758Z" fill="white"/>
<path d="M481.36 315.059C482.666 317.412 484.49 318.995 486.506 319.526C488.521 320.057 490.597 319.501 492.364 317.956C492.72 317.642 492.41 316.8 492.053 317.114C490.41 318.557 488.476 319.075 486.6 318.575C484.723 318.075 483.029 316.59 481.821 314.388C481.559 313.91 481.099 314.584 481.36 315.059V315.059Z" fill="white"/>
<path d="M464.479 322.841C464.832 316.616 466.743 310.818 469.831 306.604C470.138 306.187 469.688 305.499 469.382 305.916C466.174 310.31 464.193 316.35 463.835 322.829C463.801 323.446 464.445 323.455 464.479 322.841Z" fill="white"/>
<path d="M494.475 295.055C493.842 294.302 493.345 293.326 493.028 292.215C492.71 291.104 492.583 289.893 492.657 288.69C492.696 288.073 492.052 288.065 492.013 288.678C491.936 290.007 492.078 291.345 492.426 292.573C492.775 293.802 493.32 294.884 494.014 295.726C494.075 295.814 494.156 295.863 494.24 295.865C494.325 295.866 494.407 295.82 494.469 295.735C494.53 295.645 494.564 295.524 494.565 295.397C494.566 295.269 494.534 295.147 494.475 295.055Z" fill="white"/>
<path d="M459.33 237.877C459.298 238.261 459.266 238.645 459.23 239.033C458.786 244.192 458.062 249.289 457.065 254.274C456.992 254.661 456.914 255.052 456.834 255.435C454.346 267.405 450.392 278.581 445.171 288.395C443.092 292.298 440.817 295.958 438.365 299.346C434.979 304.023 431.059 308.692 428.967 314.593C428.744 315.205 428.547 315.837 428.376 316.485L438.815 348.438C438.863 348.493 438.907 348.552 438.955 348.607L439.333 349.911C439.467 349.75 439.604 349.578 439.739 349.416C439.817 349.323 439.893 349.223 439.972 349.13C440.023 349.065 440.075 349 440.124 348.947C440.141 348.925 440.158 348.904 440.17 348.886C440.219 348.832 440.261 348.775 440.305 348.724C441.074 347.767 441.84 346.8 442.603 345.823C442.608 345.82 442.608 345.82 442.61 345.809C448.41 338.345 453.843 330.092 458.265 320.87C458.398 320.592 458.536 320.312 458.664 320.019C460.641 315.846 462.387 311.438 463.884 306.84C464.698 304.319 465.426 301.737 466.065 299.105C467.708 292.301 468.624 285.153 468.78 277.924C469.088 263.512 466.306 249.113 459.83 238.668C459.664 238.401 459.501 238.141 459.33 237.877Z" fill="#F0F0F0"/>
<path d="M459.082 238.147C462.163 255.6 461.484 274.059 457.139 290.902C456.247 294.553 454.975 297.971 453.37 301.03C451.742 303.935 449.623 306.136 447.233 307.404C445.02 308.654 442.66 309.549 440.689 311.58C439.691 312.642 438.854 314.007 438.233 315.585C437.613 317.164 437.223 318.921 437.089 320.74C436.677 325.261 437.377 329.733 438.163 334.071C439.036 338.887 439.994 343.869 439.353 348.887C439.275 349.495 439.911 349.64 439.989 349.033C441.105 340.303 437.633 332.222 437.61 323.577C437.599 319.544 438.403 315.481 440.585 312.89C442.494 310.625 444.927 309.698 447.175 308.462C449.519 307.276 451.632 305.251 453.331 302.564C455.035 299.636 456.393 296.297 457.347 292.689C459.581 284.618 460.952 276.073 461.408 267.366C461.966 257.433 461.381 247.431 459.68 237.793C459.575 237.197 458.977 237.554 459.082 238.147Z" fill="white"/>
<path d="M458.752 285.602C460.743 286.306 462.838 285.931 464.661 284.543C466.485 283.155 467.918 280.844 468.706 278.023C468.864 277.452 468.276 277.058 468.118 277.63C467.388 280.259 466.052 282.411 464.353 283.699C462.653 284.986 460.701 285.324 458.849 284.652C458.447 284.506 458.352 285.457 458.752 285.602V285.602Z" fill="white"/>
<path d="M448.411 306.991C446.182 301.704 445.371 295.357 446.137 289.215C446.214 288.607 445.577 288.462 445.501 289.07C444.711 295.463 445.565 302.065 447.892 307.56C448.114 308.084 448.631 307.512 448.411 306.991Z" fill="white"/>
<path d="M461.157 257.84C460.348 257.807 459.558 257.475 458.856 256.873C458.155 256.271 457.565 255.419 457.139 254.392C456.921 253.865 456.404 254.437 456.62 254.961C457.094 256.092 457.747 257.032 458.521 257.7C459.295 258.367 460.166 258.742 461.059 258.79C461.143 258.805 461.228 258.772 461.296 258.697C461.364 258.623 461.411 258.512 461.426 258.388C461.439 258.262 461.417 258.134 461.367 258.031C461.317 257.929 461.241 257.86 461.157 257.84H461.157Z" fill="white"/>
<path d="M132.467 227.421C132.004 227.005 131.608 226.442 131.306 225.773C131.004 225.104 130.805 224.344 130.721 223.547C130.638 222.75 130.672 221.935 130.822 221.16C130.972 220.385 131.234 219.668 131.59 219.061L125.082 202.028L131.892 202.685L137.028 218.759C137.672 219.719 138.058 220.998 138.112 222.353C138.167 223.709 137.886 225.048 137.324 226.115C136.762 227.183 135.957 227.906 135.062 228.146C134.166 228.387 133.243 228.129 132.467 227.421Z" fill="#FFB6B6"/>
<path d="M82.3657 343.537H86.8717L89.0153 317.586L82.3651 317.587L82.3657 343.537Z" fill="#FFB6B6"/>
<path d="M81.2166 341.34L90.09 341.34H90.0903C91.59 341.34 93.0283 342.23 94.0888 343.813C95.1492 345.396 95.745 347.544 95.7451 349.783V350.058L81.2168 350.059L81.2166 341.34Z" fill="#2F2E41"/>
<path d="M113.238 343.537H117.743L119.887 317.586L113.237 317.587L113.238 343.537Z" fill="#FFB6B6"/>
<path d="M112.088 341.34L120.962 341.34H120.962C122.462 341.34 123.9 342.23 124.96 343.813C126.021 345.396 126.617 347.544 126.617 349.783V350.058L112.089 350.059L112.088 341.34Z" fill="#2F2E41"/>
<path d="M124.824 202.76C124.824 202.76 126.063 229.113 123.622 242.385C121.181 255.657 120.745 335.918 120.745 335.918H112.564L105.473 226.665L89.1245 336.303L81.3314 335.503L85.6053 206.31L124.824 202.76Z" fill="#2F2E41"/>
<path d="M88.9861 113.926L95.2408 107.111L105.721 110.519L108.558 120.584L113.447 124.204C115.054 125.394 116.444 127.148 117.497 129.318C118.55 131.487 119.234 134.005 119.492 136.656L126.476 208.669L85.6052 206.31L80.6573 121.501C80.6056 120.615 80.6735 119.723 80.8569 118.877C81.0403 118.031 81.3354 117.248 81.725 116.576C82.1145 115.903 82.5904 115.354 83.1246 114.961C83.6588 114.567 84.2404 114.338 84.8349 114.287L88.9861 113.926Z" fill="#3F3D56"/>
<path d="M116.033 129.829L119.808 137.427L136.249 212.304L128.543 216.911L116.202 182.02L116.033 129.829Z" fill="#3F3D56"/>
<path d="M102.35 103.553C107.391 103.553 111.478 97.4506 111.478 89.9228C111.478 82.3949 107.391 76.2924 102.35 76.2924C97.3084 76.2924 93.2214 82.3949 93.2214 89.9228C93.2214 97.4506 97.3084 103.553 102.35 103.553Z" fill="#FFB9B9"/>
<path opacity="0.1" d="M82.4498 146.001L97.3462 176.938L113.997 193.15L82.4498 146.001Z" fill="black"/>
<path d="M97.5121 99.7764C96.8772 97.8835 96.224 95.823 96.4667 93.7372C96.7094 91.6513 98.3125 89.8338 99.5497 90.8679C100.063 88.0979 102.335 86.8857 104.248 87.2054C106.161 87.5252 107.922 88.9029 109.806 89.4944C111.69 90.0858 113.977 89.6166 114.995 87.1774L112.559 87.1145L115.096 82.7215L112.156 82.393C113.174 80.7518 112.903 77.9633 111.917 76.2784C110.932 74.5935 109.435 73.7963 107.975 73.2922C105.061 72.2891 102.04 72.1854 99.0978 72.9875C97.7105 73.3068 96.3739 74.0013 95.1535 75.0369C94.0044 76.0835 93.0549 77.5539 92.3962 79.3067C91.6856 81.2842 91.3015 83.4865 91.2759 85.7304C91.2325 88.736 91.695 91.7099 92.6211 94.3793C93.5471 97.0488 94.9071 99.3285 96.5763 101.01" fill="#2F2E41"/>
<path d="M437.391 350.408H154.105C151.188 350.404 148.391 348.671 146.328 345.591C144.265 342.511 143.104 338.334 143.101 333.978V16.4301C143.104 12.0741 144.265 7.89783 146.328 4.81765C148.391 1.73747 151.188 0.00489042 154.105 0H437.391C440.309 0.00496775 443.105 1.73758 445.168 4.81776C447.231 7.89793 448.392 12.0741 448.395 16.4301V333.978C448.392 338.334 447.231 342.51 445.168 345.591C443.105 348.671 440.309 350.403 437.391 350.408Z" fill="#E4E4E4"/>
<path d="M366.094 145.801H322.364C320.203 145.801 318.13 144.519 316.602 142.237C315.074 139.955 314.215 136.86 314.215 133.634C314.215 130.407 315.074 127.312 316.602 125.03C318.13 122.749 320.203 121.467 322.364 121.467H366.094C368.255 121.467 370.327 122.749 371.856 125.03C373.384 127.312 374.242 130.407 374.242 133.634C374.242 136.86 373.384 139.955 371.856 142.237C370.327 144.519 368.255 145.801 366.094 145.801Z" fill="white"/>
<path d="M327.796 179.057H317.475C316.683 179.057 315.923 178.587 315.362 177.75C314.802 176.914 314.487 175.779 314.487 174.596C314.487 173.413 314.802 172.278 315.362 171.441C315.923 170.605 316.683 170.134 317.475 170.134H327.796C328.589 170.134 329.349 170.605 329.909 171.441C330.469 172.278 330.784 173.413 330.784 174.596C330.784 175.779 330.469 176.914 329.909 177.75C329.349 178.587 328.589 179.057 327.796 179.057Z" fill="white"/>
<path d="M370.711 179.057H360.39C359.597 179.057 358.837 178.587 358.277 177.75C357.717 176.914 357.402 175.779 357.402 174.596C357.402 173.413 357.717 172.278 358.277 171.441C358.837 170.605 359.597 170.134 360.39 170.134H370.711C371.504 170.134 372.263 170.605 372.824 171.441C373.384 172.278 373.699 173.413 373.699 174.596C373.699 175.779 373.384 176.914 372.824 177.75C372.263 178.587 371.504 179.057 370.711 179.057Z" fill="white"/>
<path d="M348.982 179.057H338.661C337.868 179.057 337.108 178.587 336.548 177.75C335.988 176.914 335.673 175.779 335.673 174.596C335.673 173.413 335.988 172.278 336.548 171.441C337.108 170.605 337.868 170.134 338.661 170.134H348.982C349.774 170.134 350.534 170.605 351.095 171.441C351.655 172.278 351.97 173.413 351.97 174.596C351.97 175.779 351.655 176.914 351.095 177.75C350.534 178.587 349.774 179.057 348.982 179.057Z" fill="white"/>
<path d="M327.796 196.091H317.475C316.683 196.091 315.923 195.621 315.362 194.784C314.802 193.947 314.487 192.813 314.487 191.629C314.487 190.446 314.802 189.312 315.362 188.475C315.923 187.638 316.683 187.168 317.475 187.168H327.796C328.589 187.168 329.349 187.638 329.909 188.475C330.469 189.312 330.784 190.446 330.784 191.629C330.784 192.813 330.469 193.947 329.909 194.784C329.349 195.621 328.589 196.091 327.796 196.091Z" fill="white"/>
<path d="M370.711 196.091H360.39C359.597 196.091 358.837 195.621 358.277 194.784C357.717 193.947 357.402 192.813 357.402 191.629C357.402 190.446 357.717 189.312 358.277 188.475C358.837 187.638 359.597 187.168 360.39 187.168H370.711C371.504 187.168 372.263 187.638 372.824 188.475C373.384 189.312 373.699 190.446 373.699 191.629C373.699 192.813 373.384 193.947 372.824 194.784C372.263 195.621 371.504 196.091 370.711 196.091Z" fill="white"/>
<path d="M348.982 196.091H338.661C337.868 196.091 337.108 195.621 336.548 194.784C335.988 193.947 335.673 192.813 335.673 191.629C335.673 190.446 335.988 189.312 336.548 188.475C337.108 187.638 337.868 187.168 338.661 187.168H348.982C349.774 187.168 350.534 187.638 351.095 188.475C351.655 189.312 351.97 190.446 351.97 191.629C351.97 192.813 351.655 193.947 351.095 194.784C350.534 195.621 349.774 196.091 348.982 196.091Z" fill="white"/>
<path d="M327.796 213.124H317.475C316.683 213.124 315.923 212.654 315.362 211.818C314.802 210.981 314.487 209.846 314.487 208.663C314.487 207.48 314.802 206.345 315.362 205.509C315.923 204.672 316.683 204.202 317.475 204.202H327.796C328.589 204.202 329.349 204.672 329.909 205.509C330.469 206.345 330.784 207.48 330.784 208.663C330.784 209.846 330.469 210.981 329.909 211.818C329.349 212.654 328.589 213.124 327.796 213.124Z" fill="white"/>
<path d="M370.711 213.124H360.39C359.597 213.124 358.837 212.654 358.277 211.818C357.717 210.981 357.402 209.846 357.402 208.663C357.402 207.48 357.717 206.345 358.277 205.509C358.837 204.672 359.597 204.202 360.39 204.202H370.711C371.504 204.202 372.263 204.672 372.824 205.509C373.384 206.345 373.699 207.48 373.699 208.663C373.699 209.846 373.384 210.981 372.824 211.818C372.263 212.654 371.504 213.124 370.711 213.124Z" fill="white"/>
<path d="M348.982 213.124H338.661C337.868 213.124 337.108 212.654 336.548 211.818C335.988 210.981 335.673 209.846 335.673 208.663C335.673 207.48 335.988 206.345 336.548 205.509C337.108 204.672 337.868 204.202 338.661 204.202H348.982C349.774 204.202 350.534 204.672 351.095 205.509C351.655 206.345 351.97 207.48 351.97 208.663C351.97 209.846 351.655 210.981 351.095 211.818C350.534 212.654 349.774 213.124 348.982 213.124Z" fill="white"/>
<path d="M327.796 230.158H317.475C316.683 230.158 315.923 229.688 315.362 228.852C314.802 228.015 314.487 226.88 314.487 225.697C314.487 224.514 314.802 223.379 315.362 222.542C315.923 221.706 316.683 221.236 317.475 221.236H327.796C328.589 221.236 329.349 221.706 329.909 222.542C330.469 223.379 330.784 224.514 330.784 225.697C330.784 226.88 330.469 228.015 329.909 228.852C329.349 229.688 328.589 230.158 327.796 230.158Z" fill="white"/>
<path d="M370.711 230.158H360.39C359.597 230.158 358.837 229.688 358.277 228.852C357.717 228.015 357.402 226.88 357.402 225.697C357.402 224.514 357.717 223.379 358.277 222.542C358.837 221.706 359.597 221.236 360.39 221.236H370.711C371.504 221.236 372.263 221.706 372.824 222.542C373.384 223.379 373.699 224.514 373.699 225.697C373.699 226.88 373.384 228.015 372.824 228.852C372.263 229.688 371.504 230.158 370.711 230.158Z" fill="white"/>
<path d="M348.982 230.158H338.661C337.868 230.158 337.108 229.688 336.548 228.852C335.988 228.015 335.673 226.88 335.673 225.697C335.673 224.514 335.988 223.379 336.548 222.542C337.108 221.706 337.868 221.236 338.661 221.236H348.982C349.774 221.236 350.534 221.706 351.095 222.542C351.655 223.379 351.97 224.514 351.97 225.697C351.97 226.88 351.655 228.015 351.095 228.852C350.534 229.688 349.774 230.158 348.982 230.158Z" fill="white"/>
<path d="M257.992 212.313C273.292 212.313 285.696 193.792 285.696 170.946C285.696 148.099 273.292 129.578 257.992 129.578C242.691 129.578 230.287 148.099 230.287 170.946C230.287 193.792 242.691 212.313 257.992 212.313Z" fill="#CACACA"/>
<path d="M257.992 221.641C255.831 221.638 253.76 220.355 252.232 218.074C250.705 215.793 249.846 212.7 249.843 209.474V132.417C249.842 130.818 250.052 129.235 250.461 127.758C250.871 126.28 251.471 124.938 252.227 123.807C252.984 122.676 253.883 121.779 254.872 121.167C255.861 120.555 256.921 120.24 257.992 120.24C259.062 120.24 260.122 120.555 261.111 121.167C262.1 121.779 262.999 122.676 263.756 123.807C264.512 124.938 265.112 126.28 265.522 127.758C265.931 129.235 266.141 130.818 266.14 132.417V209.474C266.137 212.7 265.278 215.793 263.751 218.074C262.223 220.355 260.152 221.638 257.992 221.641Z" fill="white"/>
<path d="M330.369 140.576H322.764C322.476 140.576 322.199 140.405 321.996 140.101C321.792 139.797 321.677 139.384 321.677 138.954C321.677 138.524 321.792 138.111 321.996 137.807C322.199 137.503 322.476 137.332 322.764 137.332H330.369C330.657 137.332 330.934 137.503 331.137 137.807C331.341 138.111 331.456 138.524 331.456 138.954C331.456 139.384 331.341 139.797 331.137 140.101C330.934 140.405 330.657 140.576 330.369 140.576Z" fill="#E4E4E4"/>
<path d="M342.32 140.982H334.715C334.427 140.982 334.15 140.811 333.947 140.507C333.743 140.202 333.628 139.79 333.628 139.359C333.628 138.929 333.743 138.517 333.947 138.212C334.15 137.908 334.427 137.737 334.715 137.737H342.32C342.608 137.737 342.885 137.908 343.088 138.212C343.292 138.517 343.406 138.929 343.406 139.359C343.406 139.79 343.292 140.202 343.088 140.507C342.885 140.811 342.608 140.982 342.32 140.982Z" fill="#E4E4E4"/>
<path d="M354.271 141.387H346.666C346.378 141.387 346.101 141.216 345.898 140.912C345.694 140.608 345.579 140.195 345.579 139.765C345.579 139.335 345.694 138.922 345.898 138.618C346.101 138.314 346.378 138.143 346.666 138.143H354.271C354.559 138.143 354.835 138.314 355.039 138.618C355.243 138.922 355.357 139.335 355.357 139.765C355.357 140.195 355.243 140.608 355.039 140.912C354.835 141.216 354.559 141.387 354.271 141.387Z" fill="#E4E4E4"/>
<path d="M366.222 141.793H358.617C358.329 141.793 358.052 141.622 357.849 141.318C357.645 141.013 357.53 140.601 357.53 140.171C357.53 139.74 357.645 139.328 357.849 139.023C358.052 138.719 358.329 138.548 358.617 138.548H366.222C366.51 138.548 366.786 138.719 366.99 139.023C367.194 139.328 367.308 139.74 367.308 140.171C367.308 140.601 367.194 141.013 366.99 141.318C366.786 141.622 366.51 141.793 366.222 141.793Z" fill="#E4E4E4"/>
<path d="M179.224 300.32C179.223 302.329 179.49 304.318 180.008 306.171C180.527 308.024 181.287 309.705 182.244 311.116H177.757C176.433 311.116 175.122 310.727 173.898 309.97C172.675 309.214 171.564 308.105 170.628 306.707C169.692 305.309 168.949 303.65 168.442 301.823C167.936 299.997 167.675 298.039 167.675 296.063V52.008C167.675 50.0311 167.936 48.0736 168.442 46.2472C168.949 44.4208 169.692 42.7612 170.628 41.3634C171.564 39.9655 172.675 38.8566 173.898 38.1001C175.122 37.3436 176.433 36.9542 177.757 36.9542H184.287C182.747 38.2916 181.469 40.209 180.58 42.5149C179.692 44.8207 179.224 47.4343 179.224 50.0945L179.224 300.32Z" fill="#CACACA"/>
<path d="M510.353 352H0.646772C0.475551 351.999 0.311517 351.897 0.190621 351.716C0.0697248 351.535 0.00183105 351.29 0.00183105 351.034C0.00183105 350.779 0.0697248 350.533 0.190621 350.352C0.311517 350.171 0.475551 350.069 0.646772 350.068H510.353C510.525 350.068 510.689 350.17 510.81 350.351C510.932 350.532 511 350.778 511 351.034C511 351.29 510.932 351.536 510.81 351.717C510.689 351.898 510.525 352 510.353 352Z" fill="#CACACA"/>
<path d="M178.137 108.269C174.704 106.833 171.258 105.503 167.8 104.278C155.973 100.063 143.983 96.9418 131.898 94.9338C129.85 94.1284 127.671 94.5638 125.837 96.1452C124.002 97.7267 122.66 100.326 122.103 103.378L116.068 136.634C115.514 139.7 115.797 142.968 116.855 145.722C117.914 148.476 119.66 150.491 121.712 151.324L121.794 151.348C129.779 152.703 137.841 154.584 145.859 156.985C146.576 157.196 147.288 157.415 148.005 157.642C150.574 158.437 153.136 159.286 155.691 160.189C156.81 160.579 157.924 160.984 159.043 161.398C162.052 162.517 165.064 163.71 168.077 164.975C171.429 166.386 174.782 167.892 178.137 169.493C178.501 169.655 178.865 169.826 179.224 170.004V108.731C178.865 108.569 178.501 108.415 178.137 108.269Z" fill="white"/>
<path d="M178.137 108.269C174.704 106.833 171.258 105.503 167.8 104.278C155.973 100.063 143.983 96.9418 131.898 94.9338C129.85 94.1284 127.671 94.5638 125.837 96.1452C124.002 97.7267 122.66 100.326 122.103 103.378L116.068 136.634C115.514 139.7 115.797 142.968 116.855 145.722C117.914 148.476 119.66 150.491 121.712 151.324L121.794 151.348C129.779 152.703 137.841 154.584 145.859 156.985C146.576 157.196 147.288 157.415 148.005 157.642C150.574 158.437 153.136 159.286 155.691 160.189C156.81 160.579 157.924 160.984 159.043 161.398C162.052 162.517 165.064 163.71 168.077 164.975C171.429 166.386 174.782 167.892 178.137 169.493C178.501 169.655 178.865 169.826 179.224 170.004V168.292C178.86 168.122 178.496 167.952 178.137 167.781C175.052 166.313 171.97 164.932 168.892 163.637C167.74 163.142 166.588 162.663 165.437 162.201C163.362 161.365 161.292 160.565 159.228 159.8C158.13 159.386 157.035 158.989 155.941 158.608C155.86 158.575 155.773 158.551 155.691 158.518C153.828 157.861 151.961 157.234 150.09 156.636C149.373 156.409 148.656 156.182 147.939 155.963C139.291 153.287 130.578 151.202 121.957 149.742C120.193 149.009 118.695 147.265 117.789 144.891C116.882 142.516 116.641 139.703 117.117 137.064L123.152 103.799C123.635 101.153 124.801 98.9001 126.395 97.536C127.989 96.1719 129.88 95.8078 131.653 96.5236L131.735 96.5398C143.666 98.518 155.505 101.584 167.186 105.722C167.305 105.77 167.425 105.811 167.544 105.852C171.086 107.117 174.617 108.485 178.137 109.956C178.496 110.102 178.86 110.256 179.224 110.418V108.731C178.865 108.569 178.501 108.415 178.137 108.269Z" fill="#6C63FF"/>
<path d="M179.224 109.575V169.144C178.86 168.966 178.501 168.795 178.137 168.625C174.927 167.092 171.706 165.648 168.474 164.294C165.371 162.98 162.259 161.744 159.135 160.587C158.027 160.181 156.924 159.784 155.816 159.394C155.773 159.102 155.729 158.81 155.691 158.518C155.49 157.123 155.333 155.712 155.213 154.292C155.159 153.749 155.121 153.205 155.083 152.654C154.511 143.964 155.308 135.195 157.409 127.046C159.511 118.897 162.859 111.595 167.186 105.722C167.344 105.495 167.506 105.276 167.67 105.065C171.179 106.314 174.668 107.666 178.137 109.12C178.501 109.258 178.865 109.413 179.224 109.575Z" fill="#6C63FF"/>
<path d="M143.148 133.965L128.041 131.305C127.509 131.211 126.971 131.275 126.456 131.492C125.941 131.709 125.459 132.075 125.039 132.57C124.619 133.065 124.268 133.679 124.007 134.376C123.746 135.073 123.579 135.841 123.516 136.634C123.453 137.428 123.496 138.232 123.641 139.001C123.786 139.77 124.032 140.489 124.363 141.116C124.695 141.744 125.106 142.267 125.573 142.658C126.04 143.048 126.554 143.297 127.085 143.391L142.192 146.051C143.264 146.236 144.341 145.779 145.188 144.78C146.034 143.78 146.581 142.321 146.707 140.72C146.834 139.12 146.53 137.511 145.863 136.244C145.196 134.978 144.219 134.158 143.148 133.965ZM145.636 140.536C145.542 141.71 145.139 142.78 144.517 143.511C143.894 144.242 143.103 144.575 142.317 144.437L127.21 141.777C126.425 141.634 125.711 141.033 125.222 140.105C124.734 139.177 124.512 137.998 124.604 136.826C124.697 135.655 125.097 134.585 125.717 133.853C126.336 133.121 127.125 132.785 127.91 132.919L143.018 135.58C143.804 135.722 144.521 136.323 145.011 137.251C145.502 138.18 145.727 139.361 145.636 140.536L145.636 140.536Z" fill="#6C63FF"/>
<path d="M179.224 123.526V151.778C178.875 152.091 178.512 152.367 178.137 152.605C176.187 153.905 174.026 154.326 171.918 153.816C169.81 153.305 167.848 151.887 166.273 149.734C166.121 149.531 165.969 149.312 165.822 149.085C165.676 148.866 165.534 148.631 165.399 148.395C163.759 145.583 162.811 142.019 162.712 138.293C162.613 134.567 163.369 130.902 164.854 127.904C166.34 124.907 168.466 122.756 170.881 121.808C173.297 120.86 175.856 121.171 178.137 122.691C178.509 122.94 178.872 123.219 179.224 123.526Z" fill="white"/>
<path d="M178.137 143.975C173.862 145.305 169.616 146.779 165.399 148.395C163.823 148.996 162.253 149.618 160.689 150.261C158.82 151.032 156.952 151.829 155.083 152.654C152.698 153.708 150.317 154.811 147.939 155.963C147.249 156.304 146.554 156.645 145.859 156.985C139.248 160.279 132.68 163.929 126.221 167.911C124.166 168.678 122.396 170.627 121.299 173.333C120.201 176.038 119.863 179.282 120.36 182.357L125.808 215.841C126.313 218.925 127.616 221.584 129.431 223.236C131.247 224.887 133.427 225.396 135.494 224.65L135.57 224.609C146.192 218.104 157.063 212.546 168.126 207.965C171.429 206.594 174.766 205.302 178.137 204.088C178.501 203.958 178.86 203.828 179.224 203.706V143.642C178.86 143.74 178.501 143.853 178.137 143.975Z" fill="white"/>
<path d="M178.137 143.975C173.862 145.305 169.616 146.779 165.399 148.395C163.823 148.996 162.253 149.618 160.689 150.261C158.82 151.032 156.952 151.829 155.083 152.654C152.698 153.708 150.317 154.811 147.939 155.963C147.249 156.304 146.554 156.645 145.859 156.985C139.248 160.279 132.68 163.929 126.221 167.911C124.166 168.678 122.396 170.627 121.299 173.333C120.201 176.038 119.863 179.282 120.36 182.357L125.808 215.841C126.313 218.925 127.616 221.584 129.431 223.236C131.247 224.887 133.427 225.396 135.494 224.65L135.57 224.609C146.192 218.104 157.063 212.546 168.126 207.965C171.429 206.594 174.766 205.302 178.137 204.088C178.501 203.958 178.86 203.828 179.224 203.706V202.036C178.86 202.165 178.501 202.295 178.137 202.425C177.866 202.522 177.589 202.62 177.317 202.717C174.123 203.877 170.963 205.104 167.838 206.399C167.756 206.432 167.669 206.472 167.588 206.505C156.581 211.076 145.764 216.615 135.195 223.092C133.413 223.716 131.538 223.265 129.977 221.835C128.417 220.406 127.297 218.115 126.862 215.46L121.419 181.976C120.987 179.31 121.281 176.497 122.236 174.154C123.191 171.81 124.73 170.128 126.514 169.477L126.596 169.436C133.631 165.089 140.79 161.146 148.005 157.642C148.7 157.302 149.395 156.969 150.09 156.637C151.796 155.834 153.504 155.052 155.213 154.292C157.017 153.489 158.818 152.716 160.618 151.973C160.738 151.924 160.857 151.875 160.977 151.827C162.737 151.105 164.502 150.407 166.273 149.734C170.201 148.241 174.155 146.871 178.137 145.621C178.496 145.508 178.86 145.394 179.224 145.289V143.642C178.86 143.74 178.501 143.853 178.137 143.975Z" fill="#6C63FF"/>
<path d="M179.224 144.461V202.871C178.865 202.993 178.501 203.114 178.137 203.244C174.737 204.477 171.351 205.791 167.979 207.186C167.843 206.959 167.713 206.732 167.588 206.505C164.068 200.352 161.482 193.135 160.007 185.349C158.532 177.563 158.203 169.392 159.043 161.398C159.07 161.13 159.103 160.854 159.135 160.587C159.162 160.327 159.195 160.059 159.228 159.8C159.563 157.144 160.028 154.528 160.618 151.973C160.689 151.664 160.76 151.356 160.836 151.048C162.492 150.366 164.155 149.712 165.822 149.085C169.902 147.511 174.007 146.081 178.137 144.794C178.496 144.672 178.86 144.567 179.224 144.461Z" fill="#6C63FF"/>
<path d="M153.98 197.372C153.573 195.878 152.785 194.686 151.79 194.058C150.795 193.43 149.674 193.417 148.673 194.022L134.576 202.555C133.576 203.163 132.779 204.339 132.36 205.824C131.94 207.309 131.932 208.982 132.338 210.476C132.744 211.97 133.53 213.162 134.524 213.79C135.518 214.419 136.639 214.433 137.64 213.829L151.737 205.296C152.736 204.687 153.534 203.511 153.954 202.025C154.374 200.54 154.384 198.867 153.98 197.372ZM151.329 203.788L137.232 212.329C136.498 212.772 135.676 212.762 134.946 212.301C134.216 211.84 133.639 210.965 133.341 209.869C133.043 208.773 133.049 207.545 133.357 206.455C133.665 205.365 134.25 204.502 134.983 204.055L149.08 195.522C149.814 195.077 150.637 195.085 151.367 195.545C152.097 196.005 152.674 196.88 152.972 197.976C153.271 199.072 153.265 200.3 152.957 201.39C152.649 202.48 152.063 203.342 151.329 203.788Z" fill="#6C63FF"/>
<path d="M179.224 159.378V191.183C178.866 191.319 178.503 191.427 178.137 191.507C175.956 191.963 173.734 191.43 171.759 189.975C169.784 188.521 168.147 186.213 167.062 183.351C165.977 180.49 165.494 177.207 165.675 173.93C165.856 170.653 166.693 167.532 168.077 164.975C168.202 164.74 168.332 164.513 168.474 164.294C168.604 164.066 168.745 163.847 168.892 163.637C170.093 161.863 171.552 160.527 173.156 159.733C174.76 158.94 176.464 158.71 178.137 159.062C178.503 159.135 178.866 159.241 179.224 159.378Z" fill="white"/>
<path d="M178.137 104.043V185.002C178.501 184.823 178.865 184.653 179.224 184.491V104.781C178.86 104.529 178.501 104.286 178.137 104.043ZM178.137 104.043V185.002C178.501 184.823 178.865 184.653 179.224 184.491V104.781C178.86 104.529 178.501 104.286 178.137 104.043ZM178.137 104.043V185.002C178.501 184.823 178.865 184.653 179.224 184.491V104.781C178.86 104.529 178.501 104.286 178.137 104.043ZM178.137 109.956V203.244C178.501 203.114 178.865 202.993 179.224 202.871V110.418C178.86 110.256 178.496 110.102 178.137 109.956V109.956ZM178.137 109.956V203.244C178.501 203.114 178.865 202.993 179.224 202.871V110.418C178.86 110.256 178.496 110.102 178.137 109.956V109.956ZM178.137 109.956V203.244C178.501 203.114 178.865 202.993 179.224 202.871V110.418C178.86 110.256 178.496 110.102 178.137 109.956V109.956ZM178.137 109.956V203.244C178.501 203.114 178.865 202.993 179.224 202.871V110.418C178.86 110.256 178.496 110.102 178.137 109.956V109.956ZM178.137 109.956V204.088C178.501 203.958 178.86 203.828 179.224 203.706V110.418C178.86 110.256 178.496 110.102 178.137 109.956V109.956ZM415.12 33.2555H189.415C186.425 33.2629 183.56 35.0393 181.446 38.1957C179.332 41.352 178.142 45.6308 178.137 50.0945V300.32C178.142 304.783 179.332 309.061 181.446 312.216C183.56 315.371 186.426 317.146 189.415 317.151H415.12C418.108 317.146 420.973 315.371 423.086 312.216C425.199 309.06 426.388 304.782 426.392 300.32V50.0945C426.389 45.6311 425.201 41.3514 423.088 38.1945C420.975 35.0376 418.109 33.2613 415.12 33.2554V33.2555ZM425.305 300.32C425.303 304.353 424.229 308.219 422.319 311.07C420.409 313.921 417.82 315.525 415.12 315.529H189.415C186.714 315.525 184.124 313.922 182.213 311.071C180.303 308.22 179.228 304.353 179.224 300.32V50.0945C179.228 46.0606 180.303 42.1937 182.213 39.3413C184.123 36.4889 186.713 34.8837 189.415 34.8777H415.12C417.821 34.8824 420.411 36.4873 422.321 39.3402C424.23 42.1932 425.304 46.0609 425.305 50.0945V300.32ZM178.137 109.956V202.425C178.501 202.295 178.86 202.165 179.224 202.036V110.418C178.86 110.256 178.496 110.102 178.137 109.956V109.956ZM178.137 109.956V203.244C178.501 203.114 178.865 202.993 179.224 202.871V110.418C178.86 110.256 178.496 110.102 178.137 109.956V109.956ZM178.137 109.956V203.244C178.501 203.114 178.865 202.993 179.224 202.871V110.418C178.86 110.256 178.496 110.102 178.137 109.956V109.956ZM178.137 109.956V203.244C178.501 203.114 178.865 202.993 179.224 202.871V110.418C178.86 110.256 178.496 110.102 178.137 109.956V109.956ZM178.137 104.043V185.002C178.501 184.823 178.865 184.653 179.224 184.491V104.781C178.86 104.529 178.501 104.286 178.137 104.043ZM178.137 104.043V185.002C178.501 184.823 178.865 184.653 179.224 184.491V104.781C178.86 104.529 178.501 104.286 178.137 104.043Z" fill="#2F2E41"/>
<path d="M129.75 189.702C129.537 188.961 129.218 188.298 128.815 187.761C128.412 187.224 127.935 186.825 127.417 186.592C126.9 186.36 126.355 186.3 125.82 186.417C125.285 186.533 124.774 186.823 124.323 187.266L113.909 175.318L113.417 185.482L123.382 195.27C123.931 196.353 124.726 197.098 125.619 197.363C126.511 197.629 127.437 197.396 128.222 196.71C129.007 196.023 129.596 194.931 129.878 193.64C130.159 192.348 130.114 190.947 129.75 189.702V189.702Z" fill="#FFB6B6"/>
<path d="M87.7851 117.595L84.3582 115.177C84.3582 115.177 78.8377 117.495 81.5197 128.396L97.7509 173.546L117.567 190.87L123.745 182.696L103.914 159.267L87.7851 117.595Z" fill="#3F3D56"/>
</svg>
